<?xml version="1.0" standalone="no"?><!DOCTYPE svg PUBLIC "-//W3C//DTD SVG 1.1//EN" "http://www.w3.org/Graphics/SVG/1.1/DTD/svg11.dtd"><svg t="1664185498749" class="icon" viewBox="0 0 1024 1024" version="1.1" xmlns="http://www.w3.org/2000/svg" p-id="16555" xmlns:xlink="http://www.w3.org/1999/xlink" width="128" height="128"><path d="M205.535377 329.643513l612.910841 0c7.314914 0 11.701408 5.858884 11.701408 11.719813l0 342.784592c0 7.325139-4.388539 11.719813-11.701408 11.719813L205.535377 695.867731c-7.314914 0-11.701408-4.394674-11.701408-11.719813L193.833969 341.361281C193.833969 335.502397 198.222508 329.643513 205.535377 329.643513L205.535377 329.643513zM808.206975 364.800907l-201.864628 147.954715 201.864628 149.418925L808.206975 364.800907 808.206975 364.800907zM587.32398 527.403855l-68.750374 51.271881c-4.388539 2.930464-10.239243 2.930464-13.165618 0l-68.750374-51.271881-197.478133 146.48846 545.622632 0L587.32398 527.403855 587.32398 527.403855zM417.641293 512.753577l-200.402463-147.954715 0 297.371594L417.641293 512.753577z" p-id="16556"></path><path d="M512.722902 1.507154c140.429167 0 267.690672 57.130765 359.847952 149.418925 93.619445 93.752369 150.668411 221.197922 150.668411 361.827498 0 142.093786-57.048966 269.539339-150.668411 361.827498-92.155235 92.288159-219.418785 149.418925-359.847952 149.418925-141.891332 0-269.154882-57.130765-361.310117-149.418925-93.619445-92.288159-150.668411-219.733713-150.668411-361.827498 0-140.629576 57.048966-268.075129 150.668411-361.827498C243.568021 58.63792 370.83157 1.507154 512.722902 1.507154L512.722902 1.507154zM831.611836 193.408612c-81.915992-82.034601-194.551759-133.304437-318.888934-133.304437-125.79934 0-238.435107 51.271881-320.351098 133.304437s-131.652089 194.829877-131.652089 319.344966S110.453767 751.532241 192.369759 833.564797c81.915992 80.568346 194.551759 131.840228 320.351098 131.840228 124.337175 0 236.972942-51.271881 318.888934-131.840228 81.915992-82.034601 131.652089-196.296132 131.652089-320.81122S913.527828 275.441168 831.611836 193.408612z" p-id="16557"></path></svg>